<svg xmlns="http://www.w3.org/2000/svg" viewBox="0 0 600 300">
  <defs>
    <linearGradient id="branch" x1="0" y1="1" x2="1" y2="0">
      <stop offset="0" stop-color="#5e5943"/>
      <stop offset=".55" stop-color="#81734f"/>
      <stop offset="1" stop-color="#a78f59"/>
    </linearGradient>
    <linearGradient id="needle" x1="0" y1="1" x2="1" y2="0">
      <stop offset="0" stop-color="#183f2d"/>
      <stop offset=".56" stop-color="#486c51"/>
      <stop offset="1" stop-color="#8ba08b"/>
    </linearGradient>
    <linearGradient id="leaf" x1="0" y1="1" x2="1" y2="0">
      <stop offset="0" stop-color="#244b35"/>
      <stop offset="1" stop-color="#758f74"/>
    </linearGradient>
    <path id="needle-shape" d="M0 0C-2-12-1-25 1-35 4-24 3-11 0 0Z" fill="url(#needle)"/>
    <g id="fir-spray">
      <path d="M0 1C-1-24 1-65 0-94" fill="none" stroke="#536f55" stroke-linecap="round" stroke-width="2.5"/>
      <use href="#needle-shape" transform="translate(0 -9) rotate(-70) scale(.72)"/>
      <use href="#needle-shape" transform="translate(0 -10) rotate(70) scale(.7)"/>
      <use href="#needle-shape" transform="translate(0 -20) rotate(-66) scale(.78)"/>
      <use href="#needle-shape" transform="translate(0 -21) rotate(65) scale(.76)"/>
      <use href="#needle-shape" transform="translate(0 -32) rotate(-61) scale(.8)"/>
      <use href="#needle-shape" transform="translate(0 -33) rotate(61) scale(.78)"/>
      <use href="#needle-shape" transform="translate(0 -45) rotate(-55) scale(.76)"/>
      <use href="#needle-shape" transform="translate(0 -46) rotate(55) scale(.74)"/>
      <use href="#needle-shape" transform="translate(0 -58) rotate(-48) scale(.68)"/>
      <use href="#needle-shape" transform="translate(0 -59) rotate(48) scale(.66)"/>
      <use href="#needle-shape" transform="translate(0 -71) rotate(-38) scale(.58)"/>
      <use href="#needle-shape" transform="translate(0 -72) rotate(38) scale(.56)"/>
      <use href="#needle-shape" transform="translate(0 -84) scale(.48)"/>
    </g>
  </defs>
  <path d="M12 272C143 251 259 194 350 129 427 74 508 44 590 23" fill="none" stroke="url(#branch)" stroke-linecap="round" stroke-width="4" opacity=".86"/>
  <g opacity=".96">
    <use href="#fir-spray" transform="translate(48 264) rotate(-57) scale(.62)"/>
    <use href="#fir-spray" transform="translate(76 256) rotate(44) scale(.56)"/>
    <use href="#fir-spray" transform="translate(107 247) rotate(-39) scale(.72)"/>
    <use href="#fir-spray" transform="translate(139 235) rotate(38) scale(.7)"/>
    <use href="#fir-spray" transform="translate(173 220) rotate(-32) scale(.82)"/>
    <use href="#fir-spray" transform="translate(207 203) rotate(36) scale(.79)"/>
    <use href="#fir-spray" transform="translate(242 183) rotate(-26) scale(.88)"/>
    <use href="#fir-spray" transform="translate(278 161) rotate(39) scale(.82)"/>
    <use href="#fir-spray" transform="translate(314 138) rotate(-21) scale(.88)"/>
    <use href="#fir-spray" transform="translate(351 115) rotate(42) scale(.78)"/>
    <use href="#fir-spray" transform="translate(390 91) rotate(-16) scale(.78)"/>
    <use href="#fir-spray" transform="translate(430 70) rotate(45) scale(.68)"/>
    <use href="#fir-spray" transform="translate(470 52) rotate(-11) scale(.64)"/>
    <use href="#fir-spray" transform="translate(510 38) rotate(48) scale(.54)"/>
    <use href="#fir-spray" transform="translate(549 29) rotate(-5) scale(.46)"/>
  </g>
  <g fill="url(#leaf)">
    <path d="M132 235c-31-7-47-27-43-51 27 0 46 14 54 42-2 6-5 9-11 9Z"/>
    <path d="M140 230c7-29 26-44 49-42 1 25-12 45-39 54-6-2-9-6-10-12Z"/>
    <path d="M348 117c-27-8-40-27-36-49 25 1 42 15 49 39-2 6-7 9-13 10Z"/>
    <path d="M357 112c8-26 26-40 48-37 0 23-13 41-38 49-6-2-9-6-10-12Z"/>
  </g>
  <g fill="#ad4548" stroke="#ead5bd" stroke-width="1.1">
    <circle cx="139" cy="232" r="5.5"/>
    <circle cx="150" cy="227" r="4.5"/>
    <circle cx="145" cy="240" r="4"/>
    <circle cx="356" cy="114" r="5"/>
    <circle cx="367" cy="110" r="4"/>
    <circle cx="362" cy="122" r="3.5"/>
  </g>
  <g fill="#eef4ef" opacity=".78">
    <circle cx="93" cy="238" r="2"/>
    <circle cx="216" cy="186" r="2.4"/>
    <circle cx="301" cy="128" r="1.8"/>
    <circle cx="414" cy="64" r="2"/>
    <circle cx="502" cy="31" r="1.6"/>
  </g>
  <path d="M116 244C181 218 225 196 270 166" fill="none" stroke="#d5b973" stroke-linecap="round" stroke-width="1.2" opacity=".7"/>
</svg>
