<svg xmlns="http://www.w3.org/2000/svg" viewBox="0 0 420 300" fill="none">
  <defs>
    <linearGradient id="stem" x1="24" y1="262" x2="389" y2="42" gradientUnits="userSpaceOnUse">
      <stop stop-color="#786a48" />
      <stop offset="1" stop-color="#a28e5e" />
    </linearGradient>
    <linearGradient id="leaf" x1="0" y1="0" x2="58" y2="-45" gradientUnits="userSpaceOnUse">
      <stop stop-color="#4e704f" />
      <stop offset=".6" stop-color="#78916e" />
      <stop offset="1" stop-color="#adb99d" />
    </linearGradient>
    <radialGradient id="berry" cx="0" cy="0" r="1" gradientTransform="translate(-2 -3) rotate(48) scale(11)">
      <stop stop-color="#fffdf4" />
      <stop offset=".56" stop-color="#e8e3d2" />
      <stop offset="1" stop-color="#b7b7a4" />
    </radialGradient>
    <path
      id="leaf-shape"
      d="M0 0C5-29 27-49 57-52 55-24 35-3 0 0Z"
      fill="url(#leaf)"
      stroke="#506c4d"
      stroke-width="1.2"
    />
  </defs>

  <path
    d="M22 270C116 241 192 195 252 136 303 86 351 56 402 34"
    stroke="url(#stem)"
    stroke-width="3.5"
    stroke-linecap="round"
    opacity=".9"
  />
  <g stroke="#7f895f" stroke-width="2" stroke-linecap="round">
    <path d="M103 236 67 187M151 211l-5-63M202 176l-45-48M251 137l7-61M301 98l-33-42M345 67l16-38" />
  </g>

  <g>
    <use href="#leaf-shape" transform="translate(105 236) rotate(155) scale(.82)" />
    <use href="#leaf-shape" transform="translate(104 236) rotate(-73) scale(.78)" />
    <use href="#leaf-shape" transform="translate(152 210) rotate(177) scale(.88)" />
    <use href="#leaf-shape" transform="translate(151 210) rotate(-48) scale(.82)" />
    <use href="#leaf-shape" transform="translate(204 175) rotate(151) scale(.8)" />
    <use href="#leaf-shape" transform="translate(204 175) rotate(-78) scale(.76)" />
    <use href="#leaf-shape" transform="translate(252 136) rotate(181) scale(.78)" />
    <use href="#leaf-shape" transform="translate(252 136) rotate(-43) scale(.72)" />
    <use href="#leaf-shape" transform="translate(302 98) rotate(149) scale(.67)" />
    <use href="#leaf-shape" transform="translate(302 98) rotate(-81) scale(.64)" />
    <use href="#leaf-shape" transform="translate(346 67) rotate(179) scale(.58)" />
    <use href="#leaf-shape" transform="translate(346 67) rotate(-42) scale(.55)" />
  </g>

  <g fill="url(#berry)" stroke="#9b9b86" stroke-width="1">
    <circle cx="103" cy="235" r="7.2" />
    <circle cx="114" cy="229" r="6" />
    <circle cx="151" cy="208" r="7.4" />
    <circle cx="162" cy="202" r="5.8" />
    <circle cx="203" cy="173" r="6.8" />
    <circle cx="252" cy="134" r="6.5" />
    <circle cx="302" cy="96" r="5.7" />
    <circle cx="347" cy="65" r="5.2" />
  </g>

  <path d="M90 242C166 210 225 167 279 112" stroke="#d0b46e" stroke-width="1" stroke-linecap="round" opacity=".62" />
</svg>
