<svg xmlns="http://www.w3.org/2000/svg" viewBox="0 0 240 84" fill="none">
  <defs>
    <linearGradient id="gold" x1="106" y1="40" x2="134" y2="76" gradientUnits="userSpaceOnUse">
      <stop stop-color="#F4E2A7" />
      <stop offset=".38" stop-color="#C39135" />
      <stop offset=".72" stop-color="#805315" />
      <stop offset="1" stop-color="#E0BE69" />
    </linearGradient>
    <linearGradient id="ribbon" x1="102" y1="14" x2="135" y2="39" gradientUnits="userSpaceOnUse">
      <stop stop-color="#BF5556" />
      <stop offset=".55" stop-color="#922D35" />
      <stop offset="1" stop-color="#641C27" />
    </linearGradient>
    <radialGradient
      id="shine"
      cx="0"
      cy="0"
      r="1"
      gradientTransform="translate(114 52) rotate(53) scale(25)"
    >
      <stop stop-color="#FFF3C5" />
      <stop offset=".3" stop-color="#D4A64D" />
      <stop offset=".75" stop-color="#875817" />
      <stop offset="1" stop-color="#5B360C" />
    </radialGradient>
    <filter id="shadow" x="94" y="33" width="52" height="51" filterUnits="userSpaceOnUse">
      <feDropShadow dx="0" dy="2" stdDeviation="2" flood-color="#172B23" flood-opacity=".24" />
    </filter>
  </defs>

  <path d="M2 25H46M194 25h44" stroke="#8C6626" stroke-width="1.4" stroke-linecap="round" />
  <path
    d="M113 25C94 25 73 19 49 8M111 29C94 31 76 36 59 45"
    stroke="#806529"
    stroke-width="1.25"
    stroke-linecap="round"
  />
  <g stroke="#214C39" stroke-width="2.2" stroke-linecap="round">
    <path
      d="M103 23 93 12M103 23 89 25M94 20 85 8M94 20 80 20M84 16 76 5M84 16 70 15M74 12 67 2M74 12 61 10M64 8 58 1M64 8 53 6"
    />
    <path
      d="M101 31 91 39M101 31 89 29M91 34 82 44M91 34 78 33M80 37 73 47M80 37 67 38M69 41 63 48M69 41 59 43"
    />
  </g>
  <g stroke="#52715D" stroke-width="1.15" stroke-linecap="round">
    <path
      d="M108 25 98 16M98 21 88 14M88 18 79 11M78 14 69 7M106 29 97 35M96 32 87 39M86 35 77 42M76 39 68 45"
    />
  </g>

  <path
    d="M127 25C146 24 167 18 191 7M129 29C146 31 164 36 181 45"
    stroke="#806529"
    stroke-width="1.25"
    stroke-linecap="round"
  />
  <g stroke="#214C39" stroke-width="2.2" stroke-linecap="round">
    <path
      d="m137 23 10-11M137 23l14 2M146 19l9-12M146 19l14 1M156 16l8-11M156 16l14-1M166 12l7-11M166 12l13-2M176 8l6-7M176 8l11-2"
    />
    <path
      d="m139 31 10 8M139 31l12-2M149 34l9 10M149 34l13-1M160 37l7 10M160 37l13 1M171 41l6 7M171 41l10 2"
    />
  </g>
  <g stroke="#52715D" stroke-width="1.15" stroke-linecap="round">
    <path
      d="m132 25 10-9M142 21l10-7M152 18l9-7M162 14l9-7M134 29l9 6M144 32l9 7M154 35l9 7M164 39l8 6"
    />
  </g>

  <g fill="#A83D45" stroke="#F0D6C2" stroke-width=".65">
    <circle cx="79" cy="28" r="3.2" />
    <circle cx="84" cy="31" r="2.7" />
    <circle cx="165" cy="28" r="3.1" />
    <circle cx="171" cy="30" r="2.6" />
  </g>

  <path
    d="M118 25C108 11 96 11 99 22c2 8 11 8 20 4Z"
    fill="url(#ribbon)"
    stroke="#713020"
    stroke-width="1"
  />
  <path
    d="M122 25c10-14 22-14 19-3-2 8-11 8-20 4Z"
    fill="url(#ribbon)"
    stroke="#713020"
    stroke-width="1"
  />
  <path
    d="m116 28-8 15 11-6 2-9M124 28l8 15-11-6-2-9"
    fill="url(#ribbon)"
    stroke="#713020"
    stroke-width="1"
    stroke-linejoin="round"
  />
  <rect
    x="115"
    y="20"
    width="10"
    height="10"
    rx="3"
    transform="rotate(45 115 20)"
    fill="#A43A41"
    stroke="#E1BE70"
    stroke-width="1.2"
  />

  <path d="M120 32v10" stroke="#8A641F" stroke-width="1.2" />
  <path d="M113 43h14l2 6h-18l2-6Z" fill="url(#gold)" stroke="#684211" stroke-width="1" />
  <g filter="url(#shadow)">
    <circle cx="120" cy="62" r="14" fill="url(#shine)" stroke="#684211" stroke-width="1.4" />
    <circle cx="120" cy="62" r="10.5" stroke="#F4DE98" stroke-opacity=".62" stroke-width=".8" />
  </g>
  <path
    d="M120 53v18M112.2 57.5l15.6 9M112.2 66.5l15.6-9M120 53l-2 3M120 53l2 3M120 71l-2-3M120 71l2-3M112.2 57.5l3.5.2M112.2 57.5l1.6 3M127.8 66.5l-3.5-.2M127.8 66.5l-1.6-3M112.2 66.5l3.5-.2M112.2 66.5l1.6-3M127.8 57.5l-3.5.2M127.8 57.5l-1.6 3"
    stroke="#FFF1C1"
    stroke-width="1"
    stroke-linecap="round"
  />
  <circle cx="120" cy="62" r="2.3" fill="#9A3039" stroke="#FFF1C1" stroke-width=".7" />
</svg>
